<svg width="53" height="52" viewBox="0 0 53 52" fill="none" xmlns="http://www.w3.org/2000/svg">
<path d="M12.9188 37.05C14.7958 35.6417 16.8938 34.5312 19.2125 33.7188C21.5313 32.9062 23.9604 32.5 26.5 32.5C29.0396 32.5 31.4688 32.9062 33.7875 33.7188C36.1063 34.5312 38.2042 35.6417 40.0813 37.05C41.3694 35.5694 42.3724 33.8903 43.0901 32.0125C43.8078 30.1347 44.1667 28.1306 44.1667 26C44.1667 21.1972 42.446 17.1076 39.0047 13.7313C35.5634 10.3549 31.3951 8.66667 26.5 8.66667C21.6049 8.66667 17.4366 10.3549 13.9953 13.7313C10.554 17.1076 8.83334 21.1972 8.83334 26C8.83334 28.1306 9.19219 30.1347 9.9099 32.0125C10.6276 33.8903 11.6306 35.5694 12.9188 37.05ZM26.5 28.1667C24.3285 28.1667 22.4974 27.4354 21.0068 25.9729C19.5162 24.5104 18.7708 22.7139 18.7708 20.5833C18.7708 18.4528 19.5162 16.6563 21.0068 15.1938C22.4974 13.7313 24.3285 13 26.5 13C28.6715 13 30.5026 13.7313 31.9932 15.1938C33.4839 16.6563 34.2292 18.4528 34.2292 20.5833C34.2292 22.7139 33.4839 24.5104 31.9932 25.9729C30.5026 27.4354 28.6715 28.1667 26.5 28.1667ZM26.5 47.6667C23.4451 47.6667 20.5743 47.0979 17.8875 45.9604C15.2007 44.8229 12.8635 43.2792 10.876 41.3292C8.88855 39.3792 7.31511 37.0861 6.15573 34.45C4.99636 31.8139 4.41667 28.9972 4.41667 26C4.41667 23.0028 4.99636 20.1861 6.15573 17.55C7.31511 14.9139 8.88855 12.6208 10.876 10.6708C12.8635 8.72084 15.2007 7.17709 17.8875 6.03959C20.5743 4.90209 23.4451 4.33334 26.5 4.33334C29.5549 4.33334 32.4257 4.90209 35.1125 6.03959C37.7993 7.17709 40.1365 8.72084 42.124 10.6708C44.1115 12.6208 45.6849 14.9139 46.8443 17.55C48.0037 20.1861 48.5833 23.0028 48.5833 26C48.5833 28.9972 48.0037 31.8139 46.8443 34.45C45.6849 37.0861 44.1115 39.3792 42.124 41.3292C40.1365 43.2792 37.7993 44.8229 35.1125 45.9604C32.4257 47.0979 29.5549 47.6667 26.5 47.6667Z" fill="#1D1B20"/>
</svg>
