<svg width="55" height="55" viewBox="0 0 55 55" fill="none" xmlns="http://www.w3.org/2000/svg">
<path d="M27.5 27.5C28.7604 27.5 29.8394 27.0512 30.737 26.1536C31.6345 25.2561 32.0833 24.1771 32.0833 22.9167C32.0833 21.6563 31.6345 20.5773 30.737 19.6797C29.8394 18.7821 28.7604 18.3333 27.5 18.3333C26.2396 18.3333 25.1606 18.7821 24.263 19.6797C23.3654 20.5773 22.9167 21.6563 22.9167 22.9167C22.9167 24.1771 23.3654 25.2561 24.263 26.1536C25.1606 27.0512 26.2396 27.5 27.5 27.5ZM27.5 44.3438C32.1597 40.066 35.6163 36.1797 37.8698 32.6849C40.1233 29.1901 41.25 26.0868 41.25 23.375C41.25 19.2118 39.9227 15.803 37.2682 13.1484C34.6137 10.4939 31.3576 9.16667 27.5 9.16667C23.6424 9.16667 20.3863 10.4939 17.7318 13.1484C15.0772 15.803 13.75 19.2118 13.75 23.375C13.75 26.0868 14.8767 29.1901 17.1302 32.6849C19.3837 36.1797 22.8403 40.066 27.5 44.3438ZM27.5 50.4167C21.3507 45.184 16.7578 40.3238 13.7213 35.8359C10.6849 31.3481 9.16666 27.1944 9.16666 23.375C9.16666 17.6458 11.0095 13.0816 14.6953 9.68229C18.3811 6.28299 22.6493 4.58334 27.5 4.58334C32.3507 4.58334 36.6189 6.28299 40.3047 9.68229C43.9904 13.0816 45.8333 17.6458 45.8333 23.375C45.8333 27.1944 44.3151 31.3481 41.2786 35.8359C38.2422 40.3238 33.6493 45.184 27.5 50.4167Z" fill="#1D1B20"/>
</svg>
