<svg width="54" height="54" viewBox="0 0 54 54" fill="none" xmlns="http://www.w3.org/2000/svg">
<path d="M45.3375 29.25H18V24.75H45.3375L41.85 21.2625L45 18L54 27L45 36L41.85 32.7375L45.3375 29.25ZM33.75 20.25V11.25H11.25V42.75H33.75V33.75H38.25V42.75C38.25 43.9875 37.8094 45.0469 36.9281 45.9281C36.0469 46.8094 34.9875 47.25 33.75 47.25H11.25C10.0125 47.25 8.95312 46.8094 8.07188 45.9281C7.19063 45.0469 6.75 43.9875 6.75 42.75V11.25C6.75 10.0125 7.19063 8.95312 8.07188 8.07188C8.95312 7.19063 10.0125 6.75 11.25 6.75H33.75C34.9875 6.75 36.0469 7.19063 36.9281 8.07188C37.8094 8.95312 38.25 10.0125 38.25 11.25V20.25H33.75Z" fill="#1D1B20"/>
</svg>
